<svg display="block">
  <symbol id="avocode" xmlns="http://www.w3.org/2000/svg" xmlns:xlink="http://www.w3.org/1999/xlink" viewBox="0 0 1866 2500">
    <path d="M933,5.9C456.1,5.9,0,887.1,0,1561.1c0,516.1,416.9,933,933,933s933-416.9,933-933
	  C1866,887.1,1409.9,5.9,933,5.9z M933,2027.6c-257.1,0-466.5-209.4-466.5-466.5c0-346.3,236.2-777.7,466.5-777.7
	  s466.5,431.4,466.5,777.7C1399.5,1818.2,1190.1,2027.6,933,2027.6z"></path>
  </symbol>

  <symbol id="figma" xmlns="http://www.w3.org/2000/svg" viewBox="0 0 200 300">
    <path id="path0_fill" d="M50 300c27.6 0 50-22.4 50-50v-50H50c-27.6 0-50 22.4-50 50s22.4 50 50 50z"></path>
    <path id="path1_fill" d="M0 150c0-27.6 22.4-50 50-50h50v100H50c-27.6 0-50-22.4-50-50z"></path>
    <path id="path1_fill_1_" d="M0 50C0 22.4 22.4 0 50 0h50v100H50C22.4 100 0 77.6 0 50z"></path>
    <path id="path2_fill" d="M100 0h50c27.6 0 50 22.4 50 50s-22.4 50-50 50h-50V0z"></path>
    <path id="path3_fill" d="M200 150c0 27.6-22.4 50-50 50s-50-22.4-50-50 22.4-50 50-50 50 22.4 50 50z"></path>
  </symbol>
  
  <symbol xmlns="http://www.w3.org/2000/svg" xmlns:xlink="http://www.w3.org/1999/xlink" viewBox="0 0 256 566" id="gulp">
    <g>
      <path d="M197.28,548.749 L202.707,458.319 L217.692,432.739 C217.692,432.739 183.586,446.691 126.487,446.691 C69.387,446.691 35.798,432.997 35.798,432.997 L52.592,460.901 L58.533,548.749 C58.533,558.167 89.592,565.801 127.907,565.801 C166.22,565.801 197.28,558.167 197.28,548.749"></path>
      <path d="M180.161,126.454 L191.552,81.429 L254.633,15.053 L238.007,0.892 L171.223,71.599 L157.997,125.392 C148.414,125.068 138.413,124.895 128.124,124.895 C57.788,124.895 0.769,132.911 0.769,142.797 C0.769,152.684 57.788,160.699 128.124,160.699 C198.459,160.699 255.477,152.684 255.477,142.797 C255.477,135.517 224.553,129.251 180.161,126.454"></path>
      <path d="M173.535,151.669 C173.535,151.669 171.068,152.222 163.811,152.253 C156.552,152.283 151.398,152.206 149.345,150.336 C148.793,149.834 148.491,148.837 148.494,148.162 C148.5,146.877 149.412,146.12 150.574,145.646 L151.673,147.37 C151.195,147.535 150.922,147.73 150.921,147.938 C150.917,148.914 158.343,149.582 164.023,149.51 C169.704,149.44 176.568,148.972 176.574,148.01 C176.574,147.719 176.055,147.445 175.152,147.229 L176.246,145.517 C177.718,145.974 179.003,146.857 179,148.385 C178.986,150.983 175.68,151.378 173.535,151.669" fill="#FFFFFF"></path>
      <path d="M254.509,15.184 C256.095,13.352 253.688,8.666 249.133,4.719 C244.576,0.774 239.596,-0.94 238.007,0.892 C236.42,2.724 238.828,7.41 243.385,11.355 C247.94,15.301 252.922,17.017 254.509,15.184"></path>
      <path d="M194.246,327.865 C192.751,313.481 225.708,292.649 217.25,291.982 C199.042,293.023 189.98,313.32 180.819,334.578 C177.462,342.369 165.975,375.591 158.441,371.501 C150.909,367.413 168.206,340.094 173.054,323.87 C167.46,327.972 146.945,343.911 141.658,328.984 C133.158,336.203 114.995,340.114 117.044,321.151 C112.522,329.161 102.373,340.344 90.191,335.697 C74.193,329.596 99.461,278.635 105.744,281.206 C112.028,283.776 104.476,295.385 102.498,299.893 C98.148,309.814 93.123,322.286 96.48,324.839 C102.231,329.213 117.881,308.292 118.229,307.832 C121.156,303.965 129.495,278.666 136.216,281.571 C142.937,284.476 119.452,317.879 128.233,324.508 C130.004,325.846 137.25,323.683 141.658,318.914 C144.51,315.829 143.529,308.996 153.036,286.324 C162.543,263.653 171.016,235.419 177.536,237.57 C184.056,239.72 178.682,254.211 176.343,259.613 C165.367,284.967 146.387,326.854 155.338,323.683 C164.289,320.513 168.95,320.327 177.715,310.07 C186.48,299.813 186.076,282.918 191.918,283.277 C197.762,283.637 196.781,289.054 195.364,293.179 C201.114,286.599 222.62,272.741 227.812,286.466 C233.962,302.715 197.043,326.186 206.248,324.989 C215.223,323.822 229.763,314.613 235.971,306.24 L253.059,152.614 C253.059,152.614 235.864,166.844 126.47,166.844 C17.075,166.844 1.659,152.91 1.659,152.91 L16.207,293.134 C23.929,271.187 42.266,226.795 71.17,228.285 C84.318,228.963 101.87,254.28 86.835,255.138 C80.471,255.5 79.825,242.501 72.289,240.592 C66.851,239.214 59.28,243.635 54.387,248.425 C44.629,257.975 23.642,295.654 26.415,314.439 C29.948,338.388 59.463,306.117 64.457,296.536 C67.974,289.787 70.35,269.791 78.042,271.889 C85.735,273.987 77.371,294.623 71.795,312.868 C65.531,333.355 62.238,354.966 54.387,352.48 C46.535,349.996 59.325,323.548 58.862,318.914 C51.482,325.723 37.886,342.961 20.492,334.429 L29.527,421.507 C29.527,421.507 53.54,440.48 125.877,440.48 C198.214,440.48 223.116,421.803 223.116,421.803 L234.335,320.946 C225.156,329.884 196.106,345.756 194.246,327.865"></path>
    </g>
  </symbol>

  <symbol id="html" xmlns="http://www.w3.org/2000/svg" xmlns:xlink="http://www.w3.org/1999/xlink" viewBox="0 0 512 512">
    <g>
        <path d="M108.382,0h23.077v22.8h21.11V0h23.078v69.044H152.57v-23.12h-21.11v23.12h-23.077L108.382,0L108.382,0z"></path>
        <path d="M205.994,22.896h-20.316V0h63.72v22.896h-20.325v46.148h-23.078L205.994,22.896L205.994,22.896z"></path>
        <path d="M259.511,0h24.063l14.802,24.26L313.163,0h24.072v69.044h-22.982V34.822l-15.877,24.549h-0.397l-15.888-24.549v34.222h-22.58V0z"></path>
        <path d="M348.72,0h23.084v46.222h32.453v22.822H348.72V0z"></path>
    </g>
    <g>
        <polygon points="107.125,470.727 74.012,99.297 437.703,99.297 404.549,470.755 255.769,512"></polygon>
        <polygon points="255.857,129.657 255.857,480.449 376.164,447.101 404.51,129.657 		"></polygon>
        <polygon fill="#FFFFFF" points="141.761,175.217 154.041,312.978 311.936,312.978 306.637,372.066 255.799,385.811 205.057,372.085 201.664,334.146 155.937,334.146 162.476,407.282 255.787,433.199 349.219,407.282 361.744,267.429 195.706,267.429 191.538,220.777 365.732,220.777 365.873,220.777 369.953,175.217"></polygon>
        <g>
          <polygon fill="#EBEBEB" points="255.857,175.217 141.761,175.217 154.041,312.978 255.857,312.978 255.857,267.429 195.706,267.429 191.538,220.777 255.857,220.777"></polygon>
          <polygon fill="#EBEBEB" points="255.857,385.791 255.799,385.811 205.057,372.085 201.664,334.146 155.937,334.146 162.476,407.282 255.787,433.199 255.857,433.179"></polygon>
        </g>
    </g>
  </symbol>

  <symbol xmlns="http://www.w3.org/2000/svg" xmlns:xlink="http://www.w3.org/1999/xlink" viewBox="0 0 512 116" id="jquery">
    <g>
        <path d="M489.718192,8.64613026 L511.13882,8.76383142 C511.13882,8.76383142 471.313656,62.7278468 468.06216,67.1259464 C467.005794,68.5501302 465.401134,70.0861302 464.588016,71.9899464 C462.531188,76.7764598 460.419432,87.2754022 460.419432,87.2754022 L440.82023,87.3725058 C440.82023,87.3725058 443.86967,76.4292414 443.744122,70.600092 C443.633288,65.5075556 441.034054,60.421885 439.57554,55.314636 C438.102314,50.1455938 436.101394,40.02918 436.101394,40.02918 L456.25085,40.02918 L459.029578,51.1460536 L489.718192,8.64613026"></path>
        <path d="M449.157394,20.0268506 C453.110192,22.4102988 455.535816,35.5555556 455.535816,35.5555556 C455.535816,35.5555556 434.8518,35.8605978 423.595648,35.8605978 L413.868628,35.8605978 L402.057318,87.2754022 L383.993134,87.2754022 C383.993134,87.2754022 395.234574,31.400705 397.888736,21.2705594 C398.749916,17.9916015 403.78066,18.5536245 412.277702,18.5536245 L425.846682,18.5536245 C434.608552,18.5536245 444.849532,17.4354636 449.157394,20.0268506"></path>
        <path d="M365.059924,45.0667892 C365.059924,45.0667892 365.622928,41.7662528 363.149242,37.9448888 C361.037486,34.6865288 359.08561,33.929318 353.527172,33.7557088 C337.831724,33.2623448 338.136766,44.89318 338.136766,44.89318 L365.059924,45.0667892 L365.059924,45.0667892 Z M382.082452,31.7479234 C384.382528,40.0438928 379.99816,59.5391264 379.99816,59.5391264 C379.99816,59.5391264 357.104306,59.1565978 344.56423,59.5391264 C340.66538,59.6578084 335.997548,59.1154022 334.83721,60.9289808 C333.204108,63.4713256 335.433564,67.383908 337.323648,69.0366284 C339.499158,70.9404444 343.736398,71.1562298 345.258666,71.3504368 C355.436874,72.6431878 376.7398,71.6839234 376.7398,71.6839234 L373.04987,88.0247662 C373.04987,88.0247662 342.94584,89.5333026 327.88892,85.940475 C324.915984,85.2323066 322.12941,83.8012568 320.246192,81.7718928 C319.73223,81.2167356 319.286928,80.459525 318.80043,79.8062836 C318.412016,79.284475 317.280122,77.5689808 316.772046,76.213456 C313.33321,67.0494406 317.175172,49.4923524 320.940628,40.0850882 C321.378084,38.9943908 321.927356,37.6123832 322.505072,36.4373334 C323.226974,34.971954 323.838038,33.3182528 324.414774,32.4423602 C324.803188,31.838161 325.2838,31.4487662 325.686928,30.8788966 C326.151846,30.2050574 326.693272,29.551816 327.194482,28.9691954 C328.583356,27.3566896 330.160552,26.2169502 332.057502,24.800613 C338.330974,20.1033564 349.68423,16.4556015 363.32285,17.8523218 C368.457564,18.3800153 376.212108,20.2141916 379.99816,25.4950498 C381.012352,26.905502 381.512582,29.7048276 382.082452,31.7479234 L382.082452,31.7479234 L382.082452,31.7479234 Z"></path>
        <path d="M299.22869,18.4908506 L316.744582,18.3868812 C316.744582,18.3868812 306.983234,64.6944368 302.008398,87.2754022 L281.858942,87.2754022 C267.776,87.2754022 255.234942,89.019341 249.899158,78.9372568 C244.72325,69.1484444 249.662774,53.0498698 251.983448,42.1134712 C253.623418,34.3736398 257.076966,18.5536245 257.076966,18.5536245 L275.224522,18.3868812 C275.224522,18.3868812 270.096674,43.0168276 267.96334,55.314636 C267.199264,59.7196016 265.62305,63.8675862 267.268904,67.1259464 C268.832368,70.22541 271.020628,70.4470804 277.69036,70.600092 C279.803096,70.649134 286.722942,70.600092 286.722942,70.600092 L299.22869,18.4908506"></path>
        <path d="M217.243954,51.8404904 C219.07813,45.3237702 221.752888,38.2577778 221.412536,32.3864522 C221.04472,26.106115 215.778574,20.3878008 212.380934,19.1862682 C202.14682,15.5728429 192.565946,20.624184 188.758314,24.7437242 C183.83154,30.0804904 182.164107,36.3127662 180.420169,44.89318 C179.121533,51.2637548 178.058299,57.9893946 180.420169,62.957364 C184.602483,71.7398314 197.64377,69.8222836 211.685518,69.9056552 C213.769808,64.3197548 215.49315,58.0453026 217.243954,51.8404904 L217.243954,51.8404904 L217.243954,51.8404904 Z M241.561992,26.1335786 C243.562912,40.6824214 235.885854,56.7398008 230.59813,70.7040614 C235.989824,71.1905594 240.714544,70.6285364 241.054896,71.030682 C241.40898,71.5524904 237.441472,87.6991264 236.058482,87.7403218 C231.779066,87.852138 217.59902,87.969839 211.685518,87.969839 C192.391356,87.969839 174.340904,89.2272796 165.135693,79.6326744 C161.397701,75.7348046 158.81318,69.0503602 158.187402,64.3472184 C157.144766,56.4955708 158.451249,47.8523832 160.271693,40.7245978 C161.918529,34.2902682 164.030284,28.2178698 167.219985,22.659433 C175.327632,8.50685058 189.432153,-1.99797701 213.075372,0.426666666 C217.660812,0.89943295 224.247172,2.9072184 228.360828,5.28968582 C228.645272,5.45740996 229.639846,6.2489502 229.868384,6.38822988 C235.42682,9.92514942 240.491892,18.3662835 241.561992,26.1335786 L241.561992,26.1335786 L241.561992,26.1335786 Z"></path>
        <path d="M156.193349,18.5742222 C155.026146,23.88941 153.858943,29.9137472 152.628966,35.166161 L133.174927,35.166161 C134.682483,29.3438774 135.835954,23.5559234 137.34351,18.4908506 C143.56892,18.4908506 149.356874,18.5742222 156.193349,18.5742222"></path>
        <path d="M132.48049,40.02918 L151.239111,40.02918 C148.787004,53.6060076 143.930851,75.5052874 140.123218,90.748567 C137.73977,100.288245 136.148843,107.250268 129.700782,112.286897 C129.124046,112.739065 128.79154,112.524261 128.311908,112.982314 C127.123126,114.115188 121.627464,115.428536 118.584889,115.761042 C113.637517,116.296582 108.044751,115.830682 101.965487,115.706115 C103.556414,109.890697 105.356261,102.908077 106.773579,97.6968582 C121.593134,99.489839 121.968797,85.4824214 124.837762,71.9899464 C126.49833,64.1942068 131.529073,43.1561072 132.48049,40.02918"></path>
        <g transform="translate(0.000000, 8.827586)">
          <path d="M88.7084138,66.6365058 L88.3062682,67.678161 C81.4550804,81.0176246 69.3171494,89.2027586 52.0033104,89.5637088 C43.9093946,89.7304522 36.1970268,87.6540076 31.1594176,85.3951264 C20.286774,80.5105288 11.1423755,71.4514636 6.14792338,61.7725058 C-1.01615326,47.897502 -2.30792338,28.596475 12.5881379,14.180046 C12.8176552,14.180046 10.7814253,17.3059923 11.0109425,17.3059923 L10.6009502,18.6399387 C-0.133394636,52.2465594 32.9376858,81.046069 65.0857932,77.7523984 C72.8118928,76.9608582 82.6644598,72.729502 88.7084138,66.6365058"></path>
          <path d="M69.2543754,52.7399234 C77.3424062,52.7958314 85.7904062,49.0156628 90.792705,43.7083218 C86.416184,54.8183296 73.7436934,61.9598468 56.7486284,59.6882146 C42.5195402,57.7843984 28.9642912,43.4650728 27.5675708,29.1173026 C26.5465134,18.675249 30.1864214,12.4429732 36.183295,4.88361686 C34.0990038,8.83739464 33.3202146,11.8868352 33.1260076,13.8318467 C30.8475096,36.4196782 51.1695938,52.6222222 69.2543754,52.7399234"></path>
          <path d="M89.980567,24.6848736 C88.7231264,27.5685518 81.483525,33.0151724 78.2869578,33.6958774 C65.6281992,36.3922146 57.5205518,30.389456 53.2744828,23.558866 C52.64282,22.5378084 51.4756168,19.7522146 51.2666974,19.0430651 C49.619862,13.443433 50.3770728,4.9738544 55.290115,0.58948659 C53.810023,4.75806896 53.5942376,9.60049042 54.3730268,12.7480153 C54.8448122,14.6518314 56.282728,17.9739464 57.7216246,20.0641226 C60.340475,23.8717548 62.0010422,24.7966896 65.3643524,26.8182068 C66.878774,27.7284292 68.5040306,28.4581762 69.2063142,28.659249 C72.3950344,29.5969348 79.1275402,32.0706206 89.980567,24.6848736"></path>
        </g>
    </g>
  </symbol>
  
  <symbol id="js" xmlns="http://www.w3.org/2000/svg" viewBox="0 0 1073.9 1074">
    <path d="m1005.4 0h-936.8c-37.9 0-68.6 30.7-68.6 68.6v936.8c0 37.8 30.7 68.6 68.6 68.6h936.8c37.8 0 68.6-30.7 68.6-68.6v-936.9c-.1-37.8-30.8-68.5-68.6-68.5zm-517.8 605.3c0 29.8-2.8 55.3-8.5 76.3s-14.3 37.8-25.7 51c-11.5 13-25.8 22.6-42.9 28.6-17.1 6.1-37 9.1-59.7 9.1-20 0-38-3.2-54.2-9.4-31.7-11.9-56.5-37.4-67.4-69.4-6.4-17.9-9.5-36.7-9.2-55.7v-13.4h64.3c0 59.9 22.2 89.9 66.6 89.9 11.4 0 21.4-1.3 30.4-4 8.9-2.8 16.4-7.8 22.6-15.4 6.2-7.5 10.8-17.9 14-31.4s4.8-31 4.8-52.7v-335.2h65.1zm359.1 97.3c-6.8 13.7-16.4 25.8-28.2 35.5-13.2 10.6-28.4 18.7-44.6 23.7-17.5 5.6-37.1 8.4-58.8 8.4-96.1 0-146.8-37.9-152-113.9h63.2c.3 42.9 29.7 64.4 88.1 64.4 13 0 24.6-1.4 34.5-4.3 10-2.8 18.3-6.8 24.9-11.8 12.9-9.3 20.5-24.2 20.4-40.1.3-7-1.1-13.9-3.9-20.3-2.6-5.2-7.7-9.7-15.2-13.7-10-4.9-20.4-8.8-31.2-11.6-17.3-5-34.7-9.8-52.2-14.3-20.9-5.2-39-10.4-54.1-15.6-13.4-4.2-26-10.5-37.4-18.8-9.5-7.1-17-16.5-21.7-27.3-4.7-10.9-7-24.6-7-41.1 0-14.5 3.1-28 9.2-40.5 6.2-12.4 14.9-23.2 26.5-32.4 11.4-9.1 25.3-16.2 41.5-21.4 17.6-5.4 36-8 54.4-7.8 92.9 0 140.2 33 141.6 99.1h-62.2c-2.2-33-27.1-49.6-74.7-49.6-10.6 0-20.3 1.1-29.4 3.2s-16.8 5.1-23.5 9.1c-6.7 3.9-11.8 8.8-15.6 14.6-3.7 6-5.7 13-5.5 20.1 0 6.9.9 12.6 2.6 17 1.7 4.5 5.8 8.6 12.4 12.4 6.5 3.8 16.2 7.6 29 11.3s30.3 8.3 52.5 13.7c21.4 5.2 40.1 10.5 55.9 16.1 15.7 5.6 28.8 12.3 39.4 20.2 10.5 7.8 18.2 17.5 23.3 28.8 5 11.3 7.6 25.5 7.6 42.5.2 16.1-3.2 30.8-9.8 44.4z"/>
  </symbol>

  <symbol id="css" xmlns="http://www.w3.org/2000/svg" viewBox="0 0 256 361">
    <g>
        <path d="M127.843868,360.087912 L23.6617143,331.166242 L0.445186813,70.7657143 L255.554813,70.7657143 L232.31367,331.125451 L127.843868,360.087912 L127.843868,360.087912 Z"></path>
        <path d="M212.416703,314.546637 L232.277802,92.0573187 L128,92.0573187 L128,337.950242 L212.416703,314.546637 L212.416703,314.546637 Z"></path>
        <path d="M53.6685714,188.636132 L56.530989,220.572835 L128,220.572835 L128,188.636132 L53.6685714,188.636132 L53.6685714,188.636132 Z" fill="#fff"></path>
        <path d="M47.917011,123.994725 L50.8202198,155.932132 L128,155.932132 L128,123.994725 L47.917011,123.994725 L47.917011,123.994725 Z" fill="#fff"></path>
        <path d="M128,271.580132 L127.860044,271.617407 L92.2915165,262.013187 L90.0177582,236.54189 L57.957978,236.54189 L62.4323516,286.687648 L127.853011,304.848879 L128,304.808088 L128,271.580132 L128,271.580132 Z" fill="#fff"></path>
        <path d="M60.4835165,0 L99.1648352,0 L99.1648352,16.1758242 L76.6593407,16.1758242 L76.6593407,32.3516484 L99.1648352,32.3516484 L99.1648352,48.5274725 L60.4835165,48.5274725 L60.4835165,0 L60.4835165,0 Z"></path>
        <path d="M106.901099,0 L145.582418,0 L145.582418,14.0659341 L123.076923,14.0659341 L123.076923,16.8791209 L145.582418,16.8791209 L145.582418,49.2307692 L106.901099,49.2307692 L106.901099,34.4615385 L129.406593,34.4615385 L129.406593,31.6483516 L106.901099,31.6483516 L106.901099,0 L106.901099,0 Z" ></path>
        <path d="M153.318681,0 L192,0 L192,14.0659341 L169.494505,14.0659341 L169.494505,16.8791209 L192,16.8791209 L192,49.2307692 L153.318681,49.2307692 L153.318681,34.4615385 L175.824176,34.4615385 L175.824176,31.6483516 L153.318681,31.6483516 L153.318681,0 L153.318681,0 Z"></path>
        <path d="M202.126769,188.636132 L207.892396,123.994725 L127.889582,123.994725 L127.889582,155.932132 L172.892132,155.932132 L169.98611,188.636132 L127.889582,188.636132 L127.889582,220.572835 L167.216527,220.572835 L163.509451,261.992791 L127.889582,271.606857 L127.889582,304.833407 L193.362286,286.687648 L193.842637,281.291956 L201.347516,197.212132 L202.126769,188.636132 L202.126769,188.636132 Z" fill="#FFFFFF"></path>
    </g>
  </symbol>

  <symbol id="photoshop" xmlns="http://www.w3.org/2000/svg" xmlns:xlink="http://www.w3.org/1999/xlink" viewBox="0 0 32 32">
    <g>
      <path d="M6,31.5c-1.378,0-2.5-1.121-2.5-2.5V3c0-1.378,1.122-2.5,2.5-2.5h15.38c0.533,0,1.034,0.207,1.411,0.583
		l5.12,5.102C28.285,6.558,28.5,7.074,28.5,7.602V29c0,1.379-1.121,2.5-2.5,2.5H6z"></path>
      <path d="M21.38,1c0.397,0,0.778,0.157,1.059,0.437l5.12,5.102C27.841,6.821,28,7.203,28,7.602V29c0,1.105-0.895,2-2,2
		H6c-1.105,0-2-0.895-2-2V3c0-1.105,0.895-2,2-2H21.38 M21.38,0H6C4.346,0,3,1.346,3,3v26c0,1.654,1.346,3,3,3h20
		c1.654,0,3-1.346,3-3V7.602c0-0.66-0.268-1.305-0.735-1.771l-5.12-5.102C22.673,0.259,22.046,0,21.38,0L21.38,0z"></path>
    </g>
    <g>
        <path d="M11.034,22.929c0-0.014,0.002-0.026,0.008-0.035s0.017-0.014,0.034-0.014
			c0.137-0.007,0.305-0.013,0.491-0.016s0.391-0.005,0.602-0.005c0.588,0,1.01,0.161,1.285,0.426s0.403,0.632,0.403,1.045
			c0,0.54-0.194,0.925-0.509,1.175s-0.749,0.366-1.229,0.366c-0.081,0-0.135-0.002-0.183-0.003s-0.09-0.003-0.146-0.003v0.816v0.816
			c0,0.018-0.003,0.03-0.011,0.038s-0.02,0.011-0.038,0.011h-0.329h-0.329c-0.018,0-0.03-0.003-0.038-0.011s-0.011-0.02-0.011-0.038
			v-2.283V22.929z M11.79,25.184c0.049,0.003,0.093,0.005,0.145,0.006s0.114,0.001,0.198,0.001c0.249,0,0.489-0.044,0.666-0.172
			s0.293-0.34,0.293-0.676c0-0.27-0.082-0.472-0.235-0.608s-0.377-0.204-0.661-0.204c-0.084,0-0.166,0.002-0.237,0.004
			s-0.13,0.006-0.169,0.009v0.819V25.184z" fill="#fff"></path>
        <path d="M14.583,27.383c-0.014-0.01-0.025-0.022-0.032-0.037s-0.011-0.032-0.011-0.053v-0.336v-0.336
			c0-0.01,0.007-0.021,0.018-0.026s0.025-0.005,0.039,0.005c0.158,0.108,0.329,0.187,0.505,0.239s0.356,0.076,0.531,0.076
			c0.256,0,0.436-0.067,0.552-0.171s0.169-0.246,0.169-0.396c0-0.133-0.033-0.254-0.128-0.378s-0.25-0.249-0.495-0.393l-0.126-0.067
			l-0.126-0.067c-0.361-0.203-0.594-0.408-0.736-0.628s-0.195-0.454-0.195-0.717c0-0.357,0.124-0.679,0.366-0.912
			s0.6-0.376,1.07-0.376c0.207,0,0.385,0.016,0.534,0.044s0.268,0.068,0.355,0.118c0.018,0.007,0.028,0.016,0.034,0.028
			s0.008,0.028,0.008,0.049v0.315v0.315c0,0.014-0.007,0.026-0.017,0.032s-0.025,0.006-0.039-0.004
			c-0.108-0.07-0.241-0.123-0.389-0.158s-0.308-0.052-0.473-0.052c-0.27,0-0.448,0.077-0.56,0.184s-0.155,0.246-0.155,0.368
			c0,0.133,0.033,0.249,0.127,0.365s0.248,0.231,0.489,0.364l0.112,0.06l0.112,0.06c0.399,0.221,0.65,0.438,0.8,0.665
			s0.201,0.466,0.201,0.728c0,0.389-0.142,0.718-0.399,0.95s-0.63,0.367-1.092,0.367c-0.207,0-0.404-0.019-0.583-0.057
			S14.712,27.457,14.583,27.383z" fill="#fff"></path>
        <path d="M17.922,22.936c0-0.018,0.002-0.03,0.009-0.038s0.019-0.014,0.04-0.017c0.081-0.004,0.237-0.009,0.432-0.014
			s0.43-0.008,0.668-0.008c0.711,0,1.243,0.229,1.598,0.627s0.531,0.963,0.531,1.636c0,0.935-0.306,1.544-0.731,1.919
			s-0.967,0.517-1.44,0.517c-0.179,0-0.397-0.002-0.595-0.004s-0.375-0.006-0.469-0.009c-0.014,0-0.025-0.005-0.032-0.015
			s-0.01-0.024-0.01-0.041v-2.276V22.936z M18.686,26.871c0.06,0.004,0.115,0.008,0.173,0.01s0.117,0.004,0.184,0.004
			c0.392,0,0.733-0.138,0.978-0.426s0.391-0.723,0.395-1.318c0.003-0.581-0.145-0.984-0.389-1.241s-0.581-0.369-0.956-0.369
			c-0.073,0-0.14,0.002-0.203,0.004s-0.123,0.006-0.182,0.009v1.663V26.871z" fill="#fff"></path>
    </g>
    <g>
        <path d="M10.289,7.249c0-0.032,0.004-0.06,0.018-0.08s0.038-0.032,0.078-0.032c0.312-0.016,0.696-0.028,1.123-0.036
			s0.894-0.012,1.375-0.012c1.344,0,2.309,0.368,2.937,0.972s0.92,1.445,0.92,2.389c0,1.233-0.444,2.113-1.162,2.685
			s-1.711,0.836-2.807,0.836c-0.184,0-0.308-0.004-0.418-0.008s-0.206-0.008-0.334-0.008v1.865v1.865
			c0,0.04-0.008,0.068-0.026,0.086s-0.046,0.026-0.086,0.026h-0.752h-0.752c-0.04,0-0.068-0.008-0.086-0.026
			s-0.026-0.046-0.026-0.086v-5.218V7.249z M12.018,12.403c0.112,0.008,0.212,0.012,0.332,0.014s0.26,0.002,0.452,0.002
			c0.568,0,1.117-0.1,1.523-0.392s0.67-0.776,0.67-1.545c0-0.616-0.188-1.08-0.538-1.391s-0.862-0.466-1.511-0.466
			c-0.192,0-0.38,0.004-0.542,0.01s-0.298,0.014-0.386,0.022v1.873V12.403z" fill="#fff"></path>
        <path d="M20.242,11.25c-0.384,0-0.64,0.096-0.8,0.232s-0.224,0.312-0.224,0.472c0,0.176,0.044,0.324,0.216,0.494
			s0.472,0.362,0.984,0.626c0.76,0.368,1.26,0.728,1.571,1.126s0.43,0.834,0.43,1.355c0,0.776-0.296,1.372-0.792,1.775
			s-1.193,0.611-1.993,0.611c-0.424,0-0.816-0.044-1.154-0.118s-0.622-0.178-0.83-0.299c-0.032-0.016-0.052-0.036-0.064-0.062
			s-0.016-0.058-0.016-0.098v-0.712V15.94c0-0.048,0.012-0.08,0.032-0.094s0.048-0.01,0.079,0.014
			c0.304,0.2,0.632,0.344,0.964,0.438s0.668,0.138,0.989,0.138c0.384,0,0.656-0.08,0.833-0.214s0.256-0.322,0.256-0.538
			c0-0.176-0.056-0.34-0.234-0.524s-0.479-0.388-0.967-0.644c-0.688-0.328-1.176-0.66-1.492-1.05s-0.46-0.838-0.46-1.399
			c0-0.624,0.244-1.196,0.7-1.612s1.124-0.676,1.973-0.676c0.416,0,0.768,0.032,1.056,0.082s0.512,0.118,0.672,0.19
			c0.04,0.024,0.064,0.056,0.078,0.09s0.018,0.07,0.018,0.102v0.664v0.664c0,0.04-0.012,0.072-0.036,0.09s-0.06,0.022-0.108,0.006
			c-0.216-0.128-0.48-0.232-0.769-0.304S20.554,11.25,20.242,11.25z" fill="#fff"></path>
    </g>
  </symbol>

  <symbol id="pug" xmlns="http://www.w3.org/2000/svg" viewBox="0 0 128 128">
    <path d="M107.4 50.9c-.2-4.4.4-8.3-1.6-11.6-4.8-8.2-16.8-13-40.8-13v.7h-.5.5v-.7c-24 0-36.6 4.8-41.4 13.1-1.9 3.4-1.7 7.2-2 11.6-.2 3.5-1.8 7.2-1.1 11.2.8 5.2 1.1 10.4 1.9 15.2.6 3.9 6 7.2 6.5 10.9 1.4 10.2 12 14.9 36 14.9v.8h-.6.7v-.8c24 0 34.2-4.7 35.5-14.9.5-3.8 5.5-7 6.1-10.9.8-4.8 1.1-10 1.9-15.2.7-4-.9-7.8-1.1-11.3z" fill="#fff" stroke="#000"></path>
    <path d="M64.6 54.5c4.3.1 7.3 2.8 10.1 5.3 3.3 2.9 8.9 4.9 11.2 7.4 2.3 2.5 5.3 5 6.4 8.9 1.1 3.9 1.4 8.9 1.4 10.2 0 1.3.7 1 2.7 0 4.7-2.3 9.9-8.5 9.9-8.5-.6 3.9-5.7 7.4-6.2 11.1C98.9 99.1 89 104 64.5 104h-.1.6" ></path>
    <circle cx="92.3" cy="58.1" r="8.8"></circle>
    <circle cx="90" cy="54.2" r="2.3" fill="#fff"></circle>
    <path d="M64.9 54.5c-4.3.1-7.5 2.8-10.4 5.3-3.3 2.9-9.1 4.9-11.4 7.4-2.3 2.5-5.4 5-6.5 8.9-1.1 3.9-1.5 8.9-1.5 10.2 0 1.3.2 1.4-2.7 0-4.7-2.2-9.9-8.5-9.9-8.5.6 3.9 5.7 7.4 6.2 11.1C30.1 99.1 40 104 64.5 104h.5" ></path>
    <path d="M88.1 71.4C83.3 65.5 75.6 60 64.9 60h-.1c-10.7 0-18.4 5.5-23.2 11.4-5 6.1-4.6 8.5-4.6 14.3 0 21 7.4 15 12.3 17.6 5 2.5 10.2 1.7 15.5 1.7h.1c5.4 0 10.5.7 15.5-1.8 4.9-2.5 12.3 3.7 12.3-17.3.1-5.8.4-8.4-4.6-14.5z" ></path>
    <path d="M64.4 65.2s-.7 9.7-2.1 11.6l2.6-.6-.5-11z" fill="#fff"></path>
    <path d="M65.1 65.2s.7 9.7 2.1 11.6l-2.6-.6.5-11z" fill="#fff"></path>
    <path d="M56.7 62.9c-1-2.3 2.6-6 8.3-6.1 5.7 0 9.3 3.7 8.3 6.1-1 2.4-4.6 3.1-8.3 3.2-3.6-.1-7.3-.8-8.3-3.2z" fill="#fff"></path>
    <path d="M65 65.2c0-.4 3.4-.5 5.2-1.7 0 0-3.7 1.2-4.5.7-.8-.4-1-1.6-1-1.6s-.3 1.2-.9 1.6c-.7.4-4.9-.7-4.9-.7s5.6 1.4 5.6 1.7c0 .3-.1 1.3-.1 2 0 2.5 0 8.7.4 9.2.6.9.4-6.7.4-9.2-.1-.8-.1-1.6-.2-2z" ></path>
    <path d="M48.6 46.7c-.9 3.1-4.1 13.6 2.1 10.1 0 0-2.6 1.5-4.2 7.2s-5.8 6.4-5.8 6.4-6.7 1.3-11.7-3c-4.2-3.6-4.9-10-3.1-14.9s5-6.3 9.7-7.3c4.7-1.1 14-2 13 1.5z" fill="#fff"></path>
    <path d="M64.9 76.8c2.7 0 11.1 5.8 11.2 12.9v-.4c0-7.4-6.8-13.3-11.2-13.3-4.4 0-11.2 6-11.2 13.3v.4c.1-7.1 8.5-12.9 11.2-12.9z" fill="#fff"></path>
    <ellipse transform="rotate(-14.465 66.712 61.468)" cx="66.7" cy="61.5" rx=".8" ry="1.5" ></ellipse>
    <ellipse transform="rotate(17.235 62.371 61.462)" cx="62.4" cy="61.5" rx=".8" ry="1.5" ></ellipse>
    <circle cx="37.2" cy="58.1" r="8.8"></circle>
    <circle cx="39.5" cy="54.2" r="2.3" fill="#fff"></circle>
    <path d="M67.5 58.2c0-.1-2.3 1-2.9 1.1-.6-.1-2.9-1.2-2.9-1.1h5.8z" fill="#fff"></path>
    <path d="M32.7 41.7S30 49.1 24 52.2c0 0 9.4-1.1 8.7-10.5zM95.8 41.7s2.7 7.4 8.7 10.5c0 0-9.4-1.1-8.7-10.5zM78.7 55.5s-5.9-6.2-13.8-6.4h.1.1c-8 .2-13.8 6.4-13.8 6.4 6.9-4.8 12.8-4.7 13.8-4.7-.1 0 6.7-.1 13.6 4.7zM71.8 42.5s-3-4.2-7-4.3h.2c-3 .1-6.9 4.3-6.9 4.3 3.4-3.3 6.9-3.2 6.9-3.2s3.3-.1 6.8 3.2zM37.2 73.2s-4.7 2.3-8.1.9H29c-3-1.7-4.5-6.8-4.5-6.8s3 9 12.7 5.9zM92 73.2s4.7 2.3 8.1.9c4-1.7 4.6-6.8 4.6-6.8s-3 9-12.7 5.9z"></path>
    <path d="M89.4 28.9s11.6 9.7 15 20.9c3.4 11.2 2 24.8 4.6 26.5 3.7 2.4 7.9-11.9 9.3-13.4 2.2-2.4 9.5-8.5 10-9.6.5-1.1-14.8-17.8-21.5-21.1-8.1-3.8-18.1-4.1-17.4-3.3z"></path>
    <path d="M99.3 34.9s13.7 17.5 13.5 39.3l5.5-11.2c-.1 0-4.9-14.3-19-28.1z"></path>
    <path d="M39.1 28.9s-11.6 9.7-15 20.9-2 24.8-4.6 26.5c-3.7 2.4-7.9-11.9-9.3-13.4C8 60.5.7 54.4.2 53.3-.3 52.2 15 35.5 21.7 32.2c8.1-3.8 18.1-4.1 17.4-3.3z"></path>
    <path d="M29.2 34.9S15.5 52.4 15.7 74.2L10.3 63s4.8-14.3 18.9-28.1z"></path>
    <path d="M21.8 74.6s1 5.4 2.6 7.1.5-1.3.5-1.3-1.7-.9-1.4-7.8-1.7 2-1.7 2zM107.1 74.6s-1 5.4-2.6 7.1-.5-1.3-.5-1.3 1.7-.9 1.4-7.8 1.7 2 1.7 2z"></path>
    <g>
      <circle cx="54.5" cy="70.5" r=".8" fill="#fff"></circle>
      <circle cx="49.9" cy="75.3" r=".8" fill="#fff"></circle>
      <circle cx="48.4" cy="70.5" r=".8" fill="#fff"></circle>
    </g>
    <g>
      <circle cx="74" cy="70.5" r=".8" fill="#fff"></circle>
      <circle cx="78.6" cy="75.3" r=".8" fill="#fff"></circle>
      <circle cx="80.1" cy="70.5" r=".8" fill="#fff"></circle>
    </g>
  </symbol>

  <symbol xmlns="http://www.w3.org/2000/svg" xmlns:xlink="http://www.w3.org/1999/xlink" viewBox="0 0 256 192" id="sass">
    <g>
      <path d="M220.281239,110.513661 C211.374863,110.560291 203.634244,112.705282 197.152641,115.876138 C194.774499,111.166485 192.396357,106.969763 191.976685,103.892168 C191.510383,100.301639 190.95082,98.1100182 191.510383,93.8200364 C192.069945,89.5300546 194.587978,83.4214936 194.541348,82.9551913 C194.494718,82.4888889 193.981785,80.2972678 188.852459,80.2506375 C183.723133,80.2040073 179.29326,81.2298725 178.780328,82.5821494 C178.267395,83.9344262 177.28816,87.0120219 176.635337,90.182878 C175.749362,94.8459016 166.376685,111.492896 161.014208,120.21275 C159.288889,116.808743 157.796721,113.824408 157.47031,111.446266 C157.004007,107.855738 156.444444,105.664117 157.004007,101.374135 C157.56357,97.084153 160.081603,90.975592 160.034973,90.5092896 C159.988342,90.0429872 159.47541,87.8513661 154.346084,87.8047359 C149.216758,87.7581056 144.786885,88.7839709 144.273953,90.1362477 C143.76102,91.4885246 143.201457,94.6593807 142.128962,97.7369763 C141.056466,100.814572 128.606193,128.606193 125.342077,135.78725 C123.663388,139.471038 122.217851,142.408743 121.191985,144.413843 L121.191985,144.413843 C121.191985,144.413843 121.145355,144.553734 121.005464,144.786885 C120.11949,146.512204 119.606557,147.444809 119.606557,147.444809 C119.606557,147.444809 119.606557,147.444809 119.606557,147.491439 C118.907104,148.750455 118.16102,149.916211 117.787978,149.916211 C117.508197,149.916211 116.995264,146.558834 117.881239,141.989071 C119.746448,132.336612 124.176321,117.321676 124.12969,116.808743 C124.12969,116.528962 124.969035,113.917668 121.238616,112.565392 C117.601457,111.213115 116.295811,113.451366 115.969399,113.451366 C115.642987,113.451366 115.409836,114.24408 115.409836,114.24408 C115.409836,114.24408 119.466667,97.3639344 107.669217,97.3639344 C100.301639,97.3639344 90.1362477,105.430965 85.1001821,112.705282 C81.929326,114.430601 75.1679417,118.11439 67.940255,122.07796 C65.189071,123.616758 62.3446266,125.155556 59.6867031,126.601093 C59.5001821,126.414572 59.3136612,126.181421 59.1271403,125.9949 C44.8582878,110.746812 18.4655738,99.9752277 19.5846995,79.5045537 C20.0043716,72.0437158 22.5690346,52.4590164 70.2717668,28.6775956 C109.534426,9.32604736 140.776685,14.6885246 146.185792,26.579235 C153.926412,43.5526412 129.445537,75.0746812 88.8772313,79.6444444 C73.3959927,81.3697632 65.2823315,75.4010929 63.2306011,73.1628415 C61.0856102,70.8313297 60.7591985,70.691439 59.9664845,71.1577413 C58.6608379,71.8571949 59.5001821,73.9555556 59.9664845,75.1679417 C61.1788707,78.3387978 66.168306,83.9344262 74.6083789,86.6856102 C82.0692168,89.1103825 100.208379,90.4626594 122.17122,81.9759563 C146.745355,72.463388 165.957013,46.0240437 160.314754,23.8746812 C154.672495,1.3989071 117.368306,-6.01530055 82.0692168,6.52823315 C61.0856102,13.989071 38.3300546,25.7398907 21.9628415,41.0346084 C2.51803279,59.2204007 -0.559562842,75.028051 0.699453552,81.6495446 C5.22258652,105.151184 37.6306011,120.445902 50.5938069,131.777049 C49.9409836,132.150091 49.3347905,132.476503 48.8218579,132.756284 C42.340255,135.97377 17.6262295,148.890346 11.4710383,162.553005 C4.47650273,178.034244 12.5901639,189.13224 17.9526412,190.624408 C34.5996357,195.240801 51.7129326,186.940619 60.8990893,173.23133 C70.0852459,159.52204 68.9661202,141.70929 64.7227687,133.548998 C64.6761384,133.455738 64.6295082,133.362477 64.5362477,133.269217 C66.2149362,132.289982 67.940255,131.264117 69.6189435,130.284882 C72.9296903,128.326412 76.1938069,126.507832 78.9916211,125.015665 C77.4061931,129.352277 76.2404372,134.528233 75.6808743,141.989071 C74.9814208,150.755556 78.571949,162.133333 83.2816029,166.609836 C85.3799636,168.568306 87.8513661,168.614936 89.4367942,168.614936 C94.9391621,168.614936 97.4105647,164.045173 100.161749,158.636066 C103.519126,152.014572 106.550091,144.320583 106.550091,144.320583 C106.550091,144.320583 102.773042,165.117668 113.031694,165.117668 C116.762113,165.117668 120.539162,160.268124 122.217851,157.796721 L122.217851,157.843352 C122.217851,157.843352 122.311111,157.703461 122.497632,157.377049 C122.870674,156.770856 123.103825,156.397814 123.103825,156.397814 L123.103825,156.304554 C124.595993,153.69326 127.95337,147.77122 132.942805,137.93224 C139.377778,125.248816 145.579599,109.394536 145.579599,109.394536 C145.579599,109.394536 146.139162,113.264845 148.051002,119.699818 C149.170128,123.476867 151.501639,127.626958 153.366849,131.637158 C151.874681,133.735519 150.942077,134.901275 150.942077,134.901275 C150.942077,134.901275 150.942077,134.901275 150.988707,134.947905 C149.776321,136.533333 148.470674,138.258652 147.025137,139.937341 C141.942441,145.999271 135.88051,152.947177 135.041166,154.952277 C134.061931,157.330419 134.295082,159.055738 136.160291,160.454645 C137.512568,161.48051 139.937341,161.620401 142.408743,161.48051 C146.978506,161.154098 150.195993,160.034973 151.781421,159.335519 C154.252823,158.449545 157.143898,157.097268 159.848452,155.092168 C164.837887,151.408379 167.868852,146.139162 167.589071,139.191257 C167.44918,135.367577 166.190164,131.543898 164.651366,127.95337 C165.117668,127.300546 165.537341,126.647723 166.003643,125.9949 C173.884153,114.477231 179.992714,101.840437 179.992714,101.840437 C179.992714,101.840437 180.552277,105.710747 182.464117,112.145719 C183.396721,115.409836 185.308561,118.953734 186.98725,122.404372 C179.573042,128.419672 175.003279,135.414208 173.37122,139.983971 C170.433515,148.470674 172.718397,152.294353 177.055009,153.180328 C179.013479,153.6 181.811293,152.667395 183.863024,151.781421 C186.474317,150.942077 189.551913,149.496539 192.489617,147.351548 C197.479053,143.66776 202.281967,138.538434 202.002186,131.590528 C201.862295,128.419672 201.022951,125.295446 199.857195,122.264481 C206.152277,119.653188 214.265938,118.20765 224.617851,119.420036 C246.813843,122.03133 251.197086,135.88051 250.357741,141.70929 C249.518397,147.538069 244.855373,150.708925 243.316576,151.68816 C241.777778,152.667395 241.264845,152.993807 241.404736,153.69326 C241.591257,154.719126 242.337341,154.672495 243.642987,154.485974 C245.461566,154.159563 255.300546,149.776321 255.720219,139.051366 C256.419672,125.342077 243.363206,110.37377 220.281239,110.513661 L220.281239,110.513661 Z M49.0550091,168.241894 C41.6874317,176.262295 31.4287796,179.29326 26.9989071,176.728597 C22.242623,173.977413 24.1078324,162.133333 33.1540984,153.64663 C38.6564663,148.470674 45.7442623,143.66776 50.4539162,140.730055 C51.5264117,140.077231 53.1118397,139.144627 55.0236794,137.978871 C55.3500911,137.79235 55.536612,137.699089 55.536612,137.699089 L55.536612,137.699089 C55.9096539,137.465938 56.2826958,137.232787 56.6557377,136.999636 C59.9664845,149.123497 56.7956284,159.801821 49.0550091,168.241894 L49.0550091,168.241894 Z M102.679781,131.777049 C100.115118,138.025501 94.7526412,154.019672 91.4885246,153.133698 C88.6907104,152.387614 86.9653916,140.263752 90.9289617,128.279781 C92.9340619,122.264481 97.1774135,115.083424 99.648816,112.28561 C103.659016,107.809107 108.088889,106.31694 109.161384,108.135519 C110.513661,110.513661 104.265209,127.860109 102.679781,131.777049 L102.679781,131.777049 Z M146.931876,152.947177 C145.859381,153.50674 144.833515,153.879781 144.367213,153.6 C144.040801,153.413479 144.833515,152.667395 144.833515,152.667395 C144.833515,152.667395 150.382514,146.698725 152.574135,143.994171 C153.833151,142.408743 155.325319,140.543534 156.910747,138.445173 L156.910747,139.051366 C156.910747,146.185792 150.009472,150.988707 146.931876,152.947177 L146.931876,152.947177 Z M181.065209,145.159927 C180.272495,144.600364 180.412386,142.735155 183.07031,136.906375 C184.096175,134.621494 186.520947,130.797814 190.671038,127.114026 C191.137341,128.606193 191.463752,130.05173 191.417122,131.404007 C191.370492,140.403643 184.935519,143.76102 181.065209,145.159927 L181.065209,145.159927 Z"></path>
    </g>
  </symbol>

  <symbol xmlns="http://www.w3.org/2000/svg" viewBox="0 0 3333 1980" id="vk">
    <path d="M3257 134c23-77 0-134-110-134h-365c-93 0-135 49-159 103 0 0-185 452-448 746-85 85-124 112-170 112-23 0-58-27-58-104V135c0-93-26-134-103-134h-573c-58 0-93 43-93 84 0 88 131 108 145 355v537c0 118-21 139-68 139-124 0-424-454-603-974C617 41 582 0 489 0H124C20 0-1 49-1 103c0 97 124 576 576 1209 301 433 726 667 1112 667 232 0 260-52 260-142v-327c0-104 22-125 95-125 54 0 147 27 363 236 247 247 288 358 427 358h365c104 0 156-52 126-155-33-102-151-251-308-427-85-100-212-209-251-263-54-70-39-100 0-162 0 0 444-626 491-838z"></path>
  </symbol>

  <symbol xmlns="http://www.w3.org/2000/svg" xmlns:xlink="http://www.w3.org/1999/xlink" viewBox="0 0 256 256" id="instagram">
    <g>
      <path d="M127.999746,23.06353 C162.177385,23.06353 166.225393,23.1936027 179.722476,23.8094161 C192.20235,24.3789926 198.979853,26.4642218 203.490736,28.2166477 C209.464938,30.5386501 213.729395,33.3128586 218.208268,37.7917319 C222.687141,42.2706052 225.46135,46.5350617 227.782844,52.5092638 C229.535778,57.0201472 231.621007,63.7976504 232.190584,76.277016 C232.806397,89.7746075 232.93647,93.8226147 232.93647,128.000254 C232.93647,162.177893 232.806397,166.225901 232.190584,179.722984 C231.621007,192.202858 229.535778,198.980361 227.782844,203.491244 C225.46135,209.465446 222.687141,213.729903 218.208268,218.208776 C213.729395,222.687649 209.464938,225.461858 203.490736,227.783352 C198.979853,229.536286 192.20235,231.621516 179.722476,232.191092 C166.227425,232.806905 162.179418,232.936978 127.999746,232.936978 C93.8200742,232.936978 89.772067,232.806905 76.277016,232.191092 C63.7971424,231.621516 57.0196391,229.536286 52.5092638,227.783352 C46.5345536,225.461858 42.2700971,222.687649 37.7912238,218.208776 C33.3123505,213.729903 30.538142,209.465446 28.2166477,203.491244 C26.4637138,198.980361 24.3784845,192.202858 23.808908,179.723492 C23.1930946,166.225901 23.0630219,162.177893 23.0630219,128.000254 C23.0630219,93.8226147 23.1930946,89.7746075 23.808908,76.2775241 C24.3784845,63.7976504 26.4637138,57.0201472 28.2166477,52.5092638 C30.538142,46.5350617 33.3123505,42.2706052 37.7912238,37.7917319 C42.2700971,33.3128586 46.5345536,30.5386501 52.5092638,28.2166477 C57.0196391,26.4642218 63.7971424,24.3789926 76.2765079,23.8094161 C89.7740994,23.1936027 93.8221066,23.06353 127.999746,23.06353 M127.999746,0 C93.2367791,0 88.8783247,0.147348072 75.2257637,0.770274749 C61.601148,1.39218523 52.2968794,3.55566141 44.1546281,6.72008828 C35.7374966,9.99121548 28.5992446,14.3679613 21.4833489,21.483857 C14.3674532,28.5997527 9.99070739,35.7380046 6.71958019,44.1551362 C3.55515331,52.2973875 1.39167714,61.6016561 0.769766653,75.2262718 C0.146839975,88.8783247 0,93.2372872 0,128.000254 C0,162.763221 0.146839975,167.122183 0.769766653,180.774236 C1.39167714,194.398852 3.55515331,203.703121 6.71958019,211.845372 C9.99070739,220.261995 14.3674532,227.400755 21.4833489,234.516651 C28.5992446,241.632547 35.7374966,246.009293 44.1546281,249.28042 C52.2968794,252.444847 61.601148,254.608323 75.2257637,255.230233 C88.8783247,255.85316 93.2367791,256 127.999746,256 C162.762713,256 167.121675,255.85316 180.773728,255.230233 C194.398344,254.608323 203.702613,252.444847 211.844864,249.28042 C220.261995,246.009293 227.400247,241.632547 234.516143,234.516651 C241.632039,227.400755 246.008785,220.262503 249.279912,211.845372 C252.444339,203.703121 254.607815,194.398852 255.229725,180.774236 C255.852652,167.122183 256,162.763221 256,128.000254 C256,93.2372872 255.852652,88.8783247 255.229725,75.2262718 C254.607815,61.6016561 252.444339,52.2973875 249.279912,44.1551362 C246.008785,35.7380046 241.632039,28.5997527 234.516143,21.483857 C227.400247,14.3679613 220.261995,9.99121548 211.844864,6.72008828 C203.702613,3.55566141 194.398344,1.39218523 180.773728,0.770274749 C167.121675,0.147348072 162.762713,0 127.999746,0 Z M127.999746,62.2703115 C91.698262,62.2703115 62.2698034,91.69877 62.2698034,128.000254 C62.2698034,164.301738 91.698262,193.730197 127.999746,193.730197 C164.30123,193.730197 193.729689,164.301738 193.729689,128.000254 C193.729689,91.69877 164.30123,62.2703115 127.999746,62.2703115 Z M127.999746,170.667175 C104.435741,170.667175 85.3328252,151.564259 85.3328252,128.000254 C85.3328252,104.436249 104.435741,85.3333333 127.999746,85.3333333 C151.563751,85.3333333 170.666667,104.436249 170.666667,128.000254 C170.666667,151.564259 151.563751,170.667175 127.999746,170.667175 Z M211.686338,59.6734287 C211.686338,68.1566129 204.809755,75.0337031 196.326571,75.0337031 C187.843387,75.0337031 180.966297,68.1566129 180.966297,59.6734287 C180.966297,51.1902445 187.843387,44.3136624 196.326571,44.3136624 C204.809755,44.3136624 211.686338,51.1902445 211.686338,59.6734287 Z"></path>
    </g>
  </symbol>
</svg>