<svg display="block"> 
    <symbol id="account" xmlns="http://www.w3.org/2000/svg" viewBox="0 0 16 16">
        <circle cx="8.45945" cy="4.18919" r="3.68919"></circle>
        <path d="M0.5 15.3379H15.5"></path>
        <path d="M0.5 15.84C0.5 12.4347 4.84699 9.91339 8.21429 10.0023C11.4328 10.0872 15.5 12.4347 15.5 15.84"></path>
    </symbol>

    <symbol id="like" xmlns="http://www.w3.org/2000/svg" viewBox="0 0 16 16">
        <path d="M7.90002 3.0948C6.69981 -2.52108 -2.59119 1.90389 1.76037 7.60175C6.11193 13.2996 8.40002 15.4908 8.40002 15.4908"></path>
        <path d="M7.89415 3.0948C9.09435 -2.52108 18.7304 1.90389 14.3789 7.60175C10.0273 13.2996 7.70001 15.5 7.70001 15.5"></path>
        <path d="M7.39099 2.70752L8.4043 2.70757L8.38337 3.24079H7.39099V2.70752Z"></path>
    </symbol>

    <symbol id="cart" xmlns="http://www.w3.org/2000/svg" viewBox="0 0 16 17">
        <path d="M1.25468 7.56595C1.13958 6.11201 2.2884 4.86865 3.74689 4.86865H12.2531C13.7116 4.86865 14.8604 6.11201 14.7453 7.56595L14.2203 14.1975C14.1174 15.4977 13.0323 16.5002 11.7281 16.5002H4.27189C2.96769 16.5002 1.88261 15.4977 1.77968 14.1975L1.25468 7.56595Z"></path>
        <path d="M3.99999 9.5C3.99999 9.5 3.78329 1 8.00001 1C12.2167 1 12 9.5 12 9.5"></path>
    </symbol>
</svg>